<?xml version="1.0" encoding="utf-8"?>
<!-- Svg Vector Icons : http://www.onlinewebfonts.com/icon -->
<!DOCTYPE svg PUBLIC "-//W3C//DTD SVG 1.1//EN" "http://www.w3.org/Graphics/SVG/1.1/DTD/svg11.dtd">
<svg version="1.1" xmlns="http://www.w3.org/2000/svg" xmlns:xlink="http://www.w3.org/1999/xlink" x="0px" y="0px" viewBox="0 0 1000 1000" enable-background="new 0 0 1000 1000" xml:space="preserve">
<metadata> Svg Vector Icons : http://www.onlinewebfonts.com/icon </metadata>
<g><g><path d="M608.6,502.3c-21.5,20.6-44.2,48.5-64.9,85.9c-20.4-73.6-46.1-127.6-72.1-167.1C590.9,22.9,10,8.6,10,8.6s17,497.7,320.3,486.3c-0.6-33.3-5.8-67-13-98.6c-4.7-20.6-10.3-40.2-16.2-58.4c-19.4-60.1-41.3-102.8-41.3-102.8c22.1,29.7,41.7,58.1,59,84.7c59.5,91.6,92,162.8,107.1,200.4c37.3,80.1,70.8,211.8,70.8,427.1c0,24.4,19.8,44.1,44.1,44.1c24.3,0,44.1-19.7,44.1-44.1c0-69.8-3.4-131.9-9.5-187.2c14.1-67.6,35.3-115.5,57.2-149.5c14.4-27.5,41-74.7,76.8-122.8c31.9-42.8,71.3-86.4,115.8-117.6c0,0-91.3,101-97.2,199.9C980.2,583.3,990,186.7,990,186.7S528.7,202.4,608.6,502.3z"/></g><g></g><g></g><g></g><g></g><g></g><g></g><g></g><g></g><g></g><g></g><g></g><g></g><g></g><g></g><g></g></g>
</svg>